<svg width="397" height="562" viewBox="0 0 397 562" fill="none" xmlns="http://www.w3.org/2000/svg">
<g style="mix-blend-mode:color-dodge" filter="url(#filter0_bd_1_74)">
<path opacity="0.57" d="M274.163 512.885C209.446 538.991 129.444 490.022 95.474 403.511C61.5041 317 86.4287 225.709 151.145 199.604C215.862 173.5 295.864 222.467 329.834 308.978C363.803 395.488 338.879 486.78 274.163 512.885Z" fill="url(#paint0_radial_1_74)"/>
<path d="M184.442 250.95C184.442 250.95 208.723 217.949 212.543 208.514C216.363 199.078 207.782 155.128 207.782 155.128L174.476 215.893L173.127 206.993C173.127 206.993 198.029 155.019 201.158 147.824C204.287 140.63 200.245 108.779 200.245 108.779C200.245 108.779 172.104 156.494 166.923 173.303C166.923 173.303 171.036 148.718 178.775 130.706C184.048 118.437 194.711 105.825 195.661 100.375C196.612 94.9232 189.418 62.1523 178.762 34.4035C174.658 23.7155 169.108 13.1707 169.108 13.1707C169.108 13.1707 151.339 65.5547 150.318 72.5834C149.297 79.6133 163.403 137.883 162.174 142.709C160.945 147.534 150.636 103.964 149.408 100.256C148.181 96.5482 144.343 88.3918 144.343 88.3918C144.343 88.3918 135.267 124.924 135.062 145.318C134.857 165.713 147.586 206.662 147.586 206.662L170.924 259.128L183.401 255.246L184.442 250.95Z" fill="url(#paint1_linear_1_74)"/>
<path opacity="0.5" d="M170.924 259.13L183.402 255.247L184.441 250.951C184.441 250.951 208.722 217.95 212.542 208.514C216.362 199.079 207.781 155.129 207.781 155.129L202.326 165.082C203.324 175.947 205.383 192.634 203.758 200.781C205.54 197.834 206.242 211.544 204.223 218.642C202.203 225.74 186.868 239.96 186.415 237.046C185.963 234.132 186.281 225.764 186.281 225.764C185.771 220.423 181.799 202.531 185.378 195.999L174.473 215.894L173.124 206.993C173.124 206.993 198.026 155.019 201.156 147.824C204.284 140.63 200.242 108.779 200.242 108.779C200.242 108.779 198.049 112.498 194.779 118.219C194.779 118.219 195.207 138.099 193.929 146.206C194.217 143.924 193.921 159.525 192.87 163.66C191.818 167.794 169.521 205.393 169.175 203.823C168.996 203.008 168.289 198.646 167.651 194.631C166.111 190.849 166.056 177.89 166.922 173.303C166.922 173.303 171.035 148.718 178.774 130.706C184.046 118.437 194.709 105.825 195.66 100.374C196.61 94.9228 189.416 62.1519 178.76 34.402C174.656 23.7151 169.105 13.1692 169.105 13.1692C169.105 13.1692 167.375 18.2703 164.963 25.5015C164.963 25.5015 186.116 83.3449 185.866 96.22C185.852 96.8932 185.779 97.6011 185.672 98.329C185.672 98.329 189.641 102.019 184.316 112.812C178.991 123.607 165.776 164.72 165.776 164.72L163.714 150.599C163.209 163.375 165.334 200.682 155.393 175.528C145.453 150.373 135.059 145.317 135.059 145.317C134.854 165.712 147.583 206.661 147.583 206.661L170.922 259.131L170.924 259.13Z" fill="url(#paint2_linear_1_74)"/>
<path opacity="0.5" d="M195.663 100.374C196.613 94.9227 189.419 62.1518 178.763 34.4018C174.659 23.7149 169.108 13.1691 169.108 13.1691C169.108 13.1691 167.377 18.2702 164.966 25.5013C164.966 25.5013 186.119 83.3448 185.869 96.2198C185.618 109.095 167.161 132.357 163.878 147.658C163.878 147.658 162.434 143.127 162.216 140.955C162.268 141.77 162.259 142.371 162.173 142.707C160.944 147.531 150.635 103.963 149.407 100.254C148.18 96.546 144.341 88.3895 144.341 88.3895C144.341 88.3895 142.96 93.9544 141.266 101.939C143.564 91.6418 162.36 160.052 160.947 168.803C159.533 177.554 136.785 143.16 135.948 132.911C135.433 137.368 135.1 141.611 135.063 145.317C134.857 165.711 147.587 206.661 147.587 206.661L170.924 259.127L183.402 255.244L184.441 250.948C184.441 250.948 208.722 217.947 212.542 208.511C216.362 199.076 207.781 155.126 207.781 155.126L202.326 165.079C203.49 177.728 206.093 198.279 202.643 204.043C199.194 209.808 186.792 231.104 186.283 225.762C185.772 220.42 181.801 202.528 185.38 195.996L174.475 215.891L173.126 206.991C173.126 206.991 198.028 155.016 201.157 147.822C204.285 140.628 200.244 108.777 200.244 108.777C200.244 108.777 198.051 112.496 194.78 118.216C194.78 118.216 195.209 138.096 193.931 146.204C192.652 154.312 171.301 195.076 168.735 195.668C166.168 196.263 165.888 178.787 166.923 173.299C166.923 173.299 171.036 148.715 178.775 130.702C184.049 118.437 194.713 105.826 195.663 100.374Z" fill="url(#paint3_linear_1_74)"/>
<path opacity="0.44" d="M135.696 155.122C138.235 176.563 147.588 206.663 147.588 206.663L170.925 259.129L180.031 256.296C185.391 236.66 184.324 220.048 179.778 206.223L174.478 215.894L173.128 206.993C173.128 206.993 174.647 203.826 176.973 198.957C166.857 176.222 147.567 162.079 135.696 155.122Z" fill="#8700CA"/>
<path d="M201.353 245.015C189.032 251.463 181.221 257.887 177.926 256.532C176.225 255.832 171.773 249.181 171.737 246.489C171.71 244.533 173.457 242.294 174.867 240.763L140.532 254.988L132.799 270.109C132.799 270.109 137.92 268.088 140.477 270.355C143.033 272.622 148.36 279.226 148.053 285.337C147.692 292.495 125.645 317.952 126.799 334.457C127.953 350.963 136.954 371.197 169.983 404.982C203.014 438.766 244.515 458.95 255.887 453.926C270.343 447.538 275.667 389.946 269.165 350.034C262.663 310.122 248.768 279.043 236.052 254.723C223.333 230.403 210.339 240.312 201.353 245.015ZM246.258 305.879C262.141 347.527 270.782 421.733 244.638 430.94C218.495 440.146 169.219 398.011 154.302 367.776C139.384 337.54 141.416 307.138 161.709 282.126C195.572 240.387 230.375 264.23 246.258 305.879Z" fill="url(#paint4_linear_1_74)"/>
<path opacity="0.35" d="M161.709 282.125C195.572 240.387 230.375 264.23 246.258 305.878C262.141 347.526 270.782 421.732 244.638 430.938C218.494 440.145 169.219 398.01 154.302 367.775C139.384 337.54 141.416 307.136 161.709 282.125Z" fill="url(#paint5_linear_1_74)"/>
<path opacity="0.79" d="M174.058 279.138C186.635 275.477 190.049 261.71 190.05 256.94C190.049 253.074 196.023 248.331 198.288 246.67C187.734 252.508 180.938 257.771 177.926 256.532C176.225 255.832 171.773 249.181 171.737 246.489C171.71 244.533 173.457 242.294 174.867 240.763L157.39 248.003L136.723 262.436L132.92 269.87C133.1 269.875 133.282 269.878 133.463 269.883C134.812 269.463 137.935 268.714 139.981 269.986C143.907 269.595 153.538 263.818 159.222 258.113C165.152 252.157 156.778 266.569 153.112 268.723C149.446 270.878 142.817 271.506 140.477 270.355C143.034 272.622 148.36 279.226 148.053 285.337C147.965 287.078 146.59 289.906 144.582 293.42C149.046 287.786 161.482 282.798 174.058 279.138Z" fill="#A192A4"/>
<path d="M142.275 264.912C142.275 264.912 152.888 269.488 154.734 274.269C156.579 279.049 172.12 261.819 172.12 261.819C172.12 261.819 163.268 252.667 164.002 247.994C164.736 243.32 142.275 264.912 142.275 264.912Z" fill="url(#paint6_linear_1_74)"/>
<path d="M121.104 223.483C136.516 211.492 161.653 195.6 168.831 202.253C176.009 208.907 182.954 221.675 182.155 228.413C181.355 235.151 167.959 249.619 156.917 257.045C148.174 262.925 132.368 272.992 122.816 271.44C113.264 269.886 99.933 258.412 98.085 251.884C96.2374 245.358 112.214 230.4 121.104 223.483Z" fill="url(#paint7_linear_1_74)"/>
<path d="M155.653 367.292C170.179 396.736 218.163 437.767 243.622 428.801C269.081 419.836 260.668 347.574 245.2 307.017C242.322 299.47 238.805 292.525 234.776 286.479C234.721 286.39 234.661 286.309 234.605 286.222C234.438 285.973 234.266 285.727 234.097 285.481C230.489 280.628 224.85 279.39 223.917 288.046C222.916 297.343 211.911 307.7 195.726 315.652C179.549 323.601 150.619 331.014 148.815 349.182C150.396 355.194 152.67 361.245 155.653 367.292Z" fill="url(#paint8_linear_1_74)"/>
<path opacity="0.5" d="M234.776 286.478C234.72 286.389 234.661 286.308 234.605 286.221C234.482 286.038 234.357 285.859 234.233 285.678C244.411 306.845 218.768 325.507 205.457 331.701C191.778 338.065 163.875 345.431 151.983 340.686C150.261 343.238 149.128 346.046 148.817 349.182C150.396 355.193 152.671 361.243 155.652 367.287C158.246 372.454 146.711 344.627 164.578 344.452C184.323 344.258 187.477 351.751 210.113 332.013C232.75 312.273 249.356 342.018 252.952 365.753C256.547 389.482 255.494 414.361 259.506 395.557C261.528 368.744 254.695 331.91 245.202 307.016C242.322 299.47 238.805 292.525 234.776 286.478Z" fill="url(#paint9_linear_1_74)"/>
<path d="M146.71 335.443C150.484 348.831 188.677 339.509 205.456 331.703C219.606 325.119 247.702 304.447 231.881 281.653C218.959 263.034 236.386 301.954 198.55 306.021C168.661 309.232 139.42 309.571 146.71 335.443Z" fill="#C41A67"/>
<path d="M105.323 222.945L111.167 216.478C111.167 216.478 102.302 215.522 100.432 214.162C98.5608 212.801 94.1008 204.987 94.1008 204.987L147.594 174.746C147.594 174.746 150.868 184.635 151.525 187.695C152.183 190.754 147.931 195.74 147.931 195.74L156.355 194.443C156.355 194.443 156.66 210.938 156.252 213.183C155.845 215.428 148.776 220.931 138.444 226.584C130.371 231 121.774 233.91 118.419 234.732C117.57 234.94 116.701 234.705 116.136 234.12L105.323 222.945Z" fill="url(#paint10_linear_1_74)"/>
<path d="M105.323 222.945L111.167 216.478C111.167 216.478 121.765 216.276 131.545 210.121C141.324 203.966 147.932 195.74 147.932 195.74L156.356 194.442C156.356 194.442 145.68 206.801 132.533 213.291C121.043 218.961 105.323 222.945 105.323 222.945Z" fill="#6F1B1A"/>
<path opacity="0.5" d="M208.025 426.735C217.398 431.477 258.551 454.493 263.245 407.821C267.938 361.149 266.295 429.439 254.989 439.882C243.683 450.327 197.581 421.452 208.025 426.735Z" fill="url(#paint11_linear_1_74)"/>
<path opacity="0.5" d="M255.885 453.924C270.341 447.536 275.665 389.944 269.163 350.032C265.328 326.49 258.914 306.043 251.694 288.222C245.814 276.233 249.505 294.13 256.073 307.639C262.672 321.21 267.715 348.356 270.06 373.862C272.404 399.369 269.791 441.55 253.35 447.831C236.909 454.113 196.337 427.551 187.013 419.015C177.689 410.478 163.284 397.961 169.982 404.979C203.012 438.764 244.513 458.948 255.885 453.924Z" fill="url(#paint12_linear_1_74)"/>
<path opacity="0.5" d="M244.639 430.939C223.522 438.376 187.316 412.315 166.312 386.085C155.206 373.655 165.799 389.566 172.121 396.036C178.445 402.506 193.882 414.803 202.721 421.671C205.435 423.779 209.222 426.749 213.705 429.591C228.294 436.589 259.215 447.903 263.245 407.822C263.721 403.093 264.13 399.562 264.471 397.014C264.104 378.56 258.394 351.121 256.785 343.72C264.28 382.061 263.907 424.153 244.639 430.939Z" fill="url(#paint13_linear_1_74)"/>
<path opacity="0.47" d="M137.183 192.462C133.015 199.264 129.76 208.618 124.108 211.722C118.457 214.826 110.077 208.272 105.988 206.851C101.9 205.429 94.1003 204.986 94.1003 204.986C94.1003 204.986 103.762 215.342 111.166 216.477C118.57 217.612 126.384 215.167 131.738 211.754C137.09 208.342 152.114 194.298 151.831 189.273C151.549 184.247 147.595 174.745 147.595 174.745L137.183 192.462Z" fill="#9E2E46"/>
<path opacity="0.47" d="M138.388 190.411C140.512 189.158 144.128 198.87 143.073 200.943C142.018 203.018 126.5 216.187 111.166 216.477L105.322 222.944C105.322 222.944 119.673 220.126 132.531 213.29C145.391 206.454 146.931 202.572 148.711 202.025C150.49 201.478 151.875 213.178 150.396 215.994C148.917 218.81 130.753 232.046 122.013 231.68C113.272 231.314 112.743 230.614 112.743 230.614C112.743 230.614 116.268 235.053 117.541 235.303C118.813 235.553 129.424 233.027 142.299 225.365C155.174 217.703 156.792 214.495 156.846 212.189C156.901 209.883 156.354 194.443 156.354 194.443L148.685 195.562C148.685 195.562 151.704 192.708 151.829 189.274C151.955 185.839 147.592 174.747 147.592 174.747L138.127 190.443L138.388 190.411Z" fill="#9E2E46"/>
<path opacity="0.65" d="M136.653 229.911C170.634 214.796 186.996 177.399 173.2 146.383C159.404 115.367 120.672 102.477 86.6915 117.592C52.7106 132.707 36.3478 170.104 50.1442 201.12C63.9406 232.136 102.672 245.026 136.653 229.911Z" fill="url(#paint14_radial_1_74)"/>
<path d="M125.635 200.629C158.106 180.512 150.001 156.6 135.062 145.318C120.115 134.031 88.0515 145.856 77.819 164.589C67.5865 183.322 80.9562 201.679 94.1006 204.986C107.245 208.293 119.437 204.469 125.635 200.629Z" fill="url(#paint15_linear_1_74)"/>
<path opacity="0.46" d="M108.686 147.37C105.738 148.066 102.833 149.061 100.059 150.295C91.5571 154.077 84.2777 160.105 80.685 166.682C76.239 174.821 77.6645 181.934 79.6438 186.465C82.3866 192.748 87.9878 197.916 93.5823 199.324C105.304 202.271 115.828 198.478 120.198 195.766C132.129 188.375 138.869 179.891 139.689 171.233C140.429 163.398 136.345 155.3 128.763 149.574C124.313 146.213 116.995 145.409 108.686 147.37Z" fill="#AD15AA"/>
<path d="M101.367 206.142C79.5422 201.392 90.9683 169.17 112.811 161.364C134.654 153.556 146.156 162.655 145.576 174.001C144.996 185.346 128.619 212.073 101.367 206.142Z" fill="#97159A"/>
<path opacity="0.44" d="M117.572 174.755C132.231 156.144 148.686 161.79 145.117 177.008C141.55 192.225 114.376 213.889 111.057 201.054C107.739 188.22 112.179 181.603 117.572 174.755Z" fill="#8700CA"/>
<path d="M98.1999 199.287C106.06 199.736 118.111 195.811 116.327 197.565C114.543 199.319 109.71 201.535 104.279 200.674C98.848 199.812 96.9636 199.217 98.1999 199.287Z" fill="#B12EED"/>
<path opacity="0.51" d="M140.021 169.089C137.283 180.628 122.197 194.164 115.226 197.78C108.255 201.397 132.62 197.678 139.278 187.984C145.936 178.291 142.175 160.009 140.021 169.089Z" fill="#AD00CA"/>
<path opacity="0.51" d="M89.4271 202.037C79.1289 197.287 79.8365 187.748 81.6957 190.203C83.5549 192.659 96.3859 199.586 100.538 199.802C104.689 200.018 94.5759 204.411 89.4271 202.037Z" fill="#AD00CA"/>
<path opacity="0.22" d="M116.527 145.374C125.12 142.155 136.146 145.414 140.796 152.822C146.591 162.053 147.608 164.146 134.089 157.031C124.273 151.863 106.424 149.158 116.527 145.374Z" fill="#5617A0"/>
<path opacity="0.22" d="M128.924 189.367C135.446 183.428 136.777 180.489 138.791 175.517C140.804 170.546 141.378 181.636 139.491 184.667C137.605 187.697 124.22 193.653 128.924 189.367Z" fill="#A617A0"/>
<path opacity="0.51" d="M115.418 162.563C106.941 162.357 110.777 150.509 113.419 152.041C116.062 153.574 121.603 162.713 115.418 162.563Z" fill="#AD00CA"/>
<path opacity="0.51" d="M113.659 168.568C111.303 168.542 111.642 165.693 114.649 166.29C117.659 166.885 117.688 168.613 113.659 168.568Z" fill="#AD00CA"/>
<path opacity="0.51" d="M124.905 164.919C116.86 167.044 119.912 154.88 123.313 156.597C126.713 158.313 129.72 163.648 124.905 164.919Z" fill="#AD00CA"/>
<path opacity="0.51" d="M107.609 182.475C107.914 179.514 115.621 183.924 114.643 185.382C113.665 186.841 107.213 186.326 107.609 182.475Z" fill="#AD00CA"/>
<path opacity="0.51" d="M106.828 189.494C108.321 188.496 107.832 185.57 106.408 185.815C104.985 186.06 99.919 194.116 106.828 189.494Z" fill="#AD00CA"/>
<path d="M82.8118 158.502C71.1161 172.352 81.8818 201.704 109.327 186.571C136.771 171.438 136.783 148.226 125.515 143.763C114.246 139.298 93.7959 145.493 82.8118 158.502Z" fill="url(#paint16_linear_1_74)"/>
<path d="M79.8156 168.429C81.4796 159.909 97.0967 148.168 107.604 147.127C118.112 146.087 105.069 146.474 94.2606 159.017C83.4524 171.56 92.6932 185.22 95.9692 188.318C99.2464 191.416 88.3653 189.306 84.7363 184.436C81.106 179.567 78.2624 176.381 79.8156 168.429Z" fill="url(#paint17_linear_1_74)"/>
<path d="M81.1332 170.143C87.6906 168.924 90.0728 157.723 88.4371 156.549C86.7997 155.374 81.5456 161.742 80.3283 165.328C79.111 168.914 79.6401 170.42 81.1332 170.143Z" fill="#DBDDFF"/>
<path d="M79.248 175.171C79.1165 173.034 86.1731 168.352 86.2416 169.611C86.3088 170.87 79.6599 181.886 79.248 175.171Z" fill="#DBDDFF"/>
<path opacity="0.5" d="M106.036 249.83C106.036 249.83 157.399 237.946 168.65 208.829C168.65 208.829 175.716 224.633 173.037 231.757C170.358 238.881 148.372 264.23 130.735 265.842C113.099 267.455 106.036 249.83 106.036 249.83Z" fill="#A1AEC8"/>
<path opacity="0.24" d="M108.358 241.454C108.358 241.454 118.033 249.646 140.536 236.513C163.04 223.38 162.744 208.62 162.744 208.62C162.744 208.62 145.292 228.833 108.358 241.454Z" fill="#838CA3"/>
<path opacity="0.5" d="M138.782 256.796C131.89 255.479 126.299 250.487 124.364 248.512C122.428 246.537 112.991 247.957 112.991 247.957C117.583 246.555 121.488 245.053 121.488 245.053C121.488 245.053 106.947 249.04 105.971 244.318C104.995 239.595 115.524 233.486 115.524 233.486L112.746 230.615C112.746 230.615 102.556 239.423 98.8143 247.324C97.227 250.675 101.068 250.771 106.014 249.776L106.039 249.832C106.039 249.832 112.413 263.145 122.972 265.265C133.531 267.385 142.627 262.213 146.285 259.682C149.94 257.149 145.675 258.113 138.782 256.796Z" fill="#A192C8"/>
<path opacity="0.79" d="M158.371 223.739C158.371 223.739 165.161 213.604 165.024 207.605C164.887 201.607 156.461 207.469 156.461 207.469L156.274 202.09C156.274 202.09 163.418 199.438 167.043 201.171C170.668 202.902 171.625 210.004 158.371 223.739Z" fill="#A192A4"/>
<path opacity="0.79" d="M121.486 245.053C121.486 245.053 106.945 249.04 105.969 244.317C104.993 239.595 115.522 233.486 115.522 233.486L112.744 230.614C112.744 230.614 102.554 239.423 98.8123 247.324C95.0692 255.225 121.486 245.053 121.486 245.053Z" fill="#A192A4"/>
<path opacity="0.5" d="M129.649 242.849C129.649 242.849 148.832 232.857 155.109 228.001C155.109 228.001 159.657 251.505 150.917 254.619C142.177 257.735 129.649 242.849 129.649 242.849Z" fill="url(#paint18_linear_1_74)"/>
<path opacity="0.51" d="M176.147 231.031C173.609 237.97 158.907 251.713 146.283 259.681C145.237 260.341 144.19 260.919 143.143 261.46C152.274 254.412 150.51 231.468 140.536 236.513C129.921 241.882 114.211 247.578 114.211 247.578C108.548 249.767 127.453 265.613 139.072 263.307C128.92 267.194 119.216 266.025 112.605 263.026C108.185 261.022 105.744 258.986 108.339 262.603C110.932 266.219 117.335 272.396 126.913 271.478C136.49 270.559 157.148 255.875 168.698 244.006C180.249 232.138 184.242 230.258 180.489 219.695C176.735 209.131 178.685 224.091 176.147 231.031Z" fill="#838CA3"/>
<path opacity="0.5" d="M167.043 201.171C163.418 199.438 156.274 202.09 156.274 202.09L156.46 207.469C156.46 207.469 164.887 201.606 165.024 207.606C165.161 213.605 158.371 223.739 158.371 223.739C159.887 222.168 161.208 220.688 162.37 219.289C159.478 223.886 155.151 229.298 155.174 236.999C155.181 239.401 155.674 242.563 154.739 248.667C153.804 254.771 154.042 253.913 160.712 247.761C167.382 241.611 174.157 233.196 173.573 226.117C173.095 220.314 169.858 211.884 168.704 209.029C170.2 204.67 169.023 202.118 167.043 201.171Z" fill="#A192C8"/>
<path d="M119.812 245.464C111.929 248.927 123.189 247.616 130.351 244.43C137.514 241.244 153.498 229.793 147.041 232.644C140.582 235.496 122.214 244.41 119.812 245.464Z" fill="#E8E6ED"/>
<path d="M138.168 267.979C135.889 269.357 137.288 263.5 139.659 261.875C142.03 260.25 152.758 258.891 150.128 261.449C147.498 264.007 138.168 267.979 138.168 267.979Z" fill="#E8E6ED"/>
<path d="M124.253 249.376C131.439 245.218 136.625 242.67 135.529 245.607C134.432 248.544 132.896 250.791 130.355 251.398C127.814 252.005 119.322 252.23 124.253 249.376Z" fill="#E8E6ED"/>
<path opacity="0.5" d="M138.299 305.616C144.466 294.182 148.684 287.856 147.658 302.941C146.632 318.025 139.279 327.739 138.332 333.512C137.384 339.286 153.622 373.016 162.541 384.179C171.46 395.343 158.176 388.335 147.807 375.999C137.438 363.661 127.491 346.137 128.428 335.277C129.718 320.315 135.196 311.37 138.299 305.616Z" fill="#A192C8"/>
<path opacity="0.5" d="M190.447 254.959C195.818 258.08 200.369 257.66 211.136 258.468C221.903 259.275 234.258 275.987 244.834 296.601C255.41 317.216 250.512 287.549 242.5 270.484C234.487 253.42 228.706 240.375 219.576 239.159C210.443 237.942 186.367 252.589 190.447 254.959Z" fill="#A192C8"/>
<path opacity="0.7" d="M209.975 254.91C212.929 256.369 223.86 265.249 226.31 264.121C228.759 262.993 231.403 246.539 226 242.27C220.598 238.002 214.406 237.837 210.216 244.544C206.027 251.252 206.302 253.096 209.975 254.91Z" fill="#B48CAE"/>
<path opacity="0.9" d="M130.551 323.341C135.519 313.75 143.554 309.044 142.809 314.485C142.064 319.928 140.735 330.003 135.208 333.812C129.682 337.62 128.195 334.456 129.078 330.049C129.962 325.642 130.551 323.341 130.551 323.341Z" fill="#B48CAE"/>
<path opacity="0.5" d="M189.426 411.115C202.132 420.174 223.389 436.831 234.297 438.115C245.205 439.399 217.142 437.684 208.283 431.899C199.423 426.113 183.366 410.881 179.113 405.588C174.859 400.296 177.138 402.356 189.426 411.115Z" fill="#A60045"/>
<path opacity="0.5" d="M264.194 399.172C266.256 385.604 261.61 366.121 263.07 357.85C264.531 349.578 269.914 373.964 269.564 382.295C269.214 390.624 263.165 405.948 264.194 399.172Z" fill="#A60045"/>
<path opacity="0.5" d="M257.027 333.178C256.01 323.78 250.545 310.546 252.861 313.383C255.178 316.219 262.133 330.906 262.133 330.906L257.027 333.178Z" fill="#A60045"/>
<path d="M222.297 269.74C230.025 277.135 231.441 277.078 235.055 283.785C238.671 290.493 227.369 266.229 220.376 262.546C213.382 258.863 196.695 257.949 205.297 261.064C213.901 264.176 218.997 266.581 222.297 269.74Z" fill="#E8E6ED"/>
<g opacity="0.5">
<path d="M233.982 295.287C235.411 300.711 233.173 307.38 228.84 312.815C224.506 318.25 210.653 320.621 201.771 327.15C192.889 333.679 176.426 339.705 170.418 340.637C164.426 341.565 152.047 340.692 159.417 342.123C173.086 342.914 194.136 336.969 205.455 331.703C217.345 326.171 239.077 310.687 236.326 292.358C234.918 287.075 232.558 289.878 233.982 295.287Z" fill="#C41A67"/>
</g>
<g opacity="0.75">
<path d="M193.575 336.371C210.936 330.648 218.784 323.803 223.034 320.076C227.284 316.349 210.076 325.014 206.449 325.712C202.823 326.411 196.92 333.239 193.144 335.402C189.368 337.565 186.86 338.584 193.575 336.371Z" fill="#C41A67"/>
</g>
<path opacity="0.57" d="M252.896 338.123C265.176 385.65 246.202 395.637 235.368 402.68C224.534 409.722 190.534 413.244 172.724 392.923C154.916 372.605 143.507 370.532 153.537 386.992C158.215 392.538 163.653 398.509 169.98 404.982C203.011 438.766 244.513 458.95 255.884 453.926C270.341 447.538 275.665 389.946 269.163 350.034C264.015 318.438 254.233 292.395 244.072 270.841C235.571 254.465 241.235 292.991 252.896 338.123Z" fill="url(#paint19_linear_1_74)"/>
<path opacity="0.26" d="M148.652 322.394C156.771 314.306 165.489 309.297 188.557 310.359C211.625 311.421 216.67 308.854 222.126 295.033C227.581 281.213 229.513 285.557 229.845 291.993C230.177 298.429 231.047 306.78 225.6 310.782C220.153 314.784 206.392 310.171 196.23 311.984C186.066 313.798 193.236 315.926 203.653 314.919C214.069 313.911 227.267 314.327 217.718 316.736C208.171 319.147 201.881 319.236 189.353 328.774C176.823 338.312 160.691 337.849 154.423 333.481C148.154 329.113 143.317 327.709 148.652 322.394Z" fill="url(#paint20_linear_1_74)"/>
<path d="M160.878 366.289C154.131 346.322 151.746 307.706 170.354 292.943C188.962 278.18 188.302 277.746 188.556 310.358C188.81 342.97 201.214 362.464 205.05 366.43C208.886 370.396 191.555 396.012 186.869 397.137C182.182 398.264 167.258 385.173 160.878 366.289Z" fill="url(#paint21_linear_1_74)"/>
<path opacity="0.44" d="M247.415 385.905C245.807 400.248 235.031 415.115 238.867 415.276C242.702 415.437 251.315 400.642 252.802 391.347C254.291 382.051 249.253 369.513 247.415 385.905Z" fill="url(#paint22_linear_1_74)"/>
<path opacity="0.67" d="M212.158 438.837C212.158 438.837 253.469 409.925 271.902 386.38L269.615 422.464L268.746 425.708C268.746 425.708 248.918 445.905 227.159 447.144L225.226 446.303L212.158 438.837Z" fill="#6E2F9B"/>
<path d="M223.503 303.643C211.129 299.965 214.631 293.918 215.28 292.127C216.57 288.556 224.23 291.403 225.794 294.55C227.356 297.698 226.894 304.65 223.503 303.643Z" fill="#E8E6ED"/>
<path d="M232.562 309.9C231.452 305.696 230.433 307.765 228.802 309.116C227.172 310.467 234.467 317.105 232.562 309.9Z" fill="#E8E6ED"/>
<path d="M185.365 338.702C196.611 336.591 204.42 332.463 206.988 331.032C209.555 329.6 198.918 331.202 196.031 333.302C193.144 335.402 174.331 340.772 185.365 338.702Z" fill="#E8E6ED"/>
<path opacity="0.67" d="M148.061 373.389C148.061 373.389 149.803 380.781 154.814 384.461C159.826 388.14 164.981 387.397 160.623 374.121C156.264 360.846 151.329 320.399 154.675 302.633C158.02 284.866 157.408 286.428 158.674 286.099C159.939 285.769 179.457 360.184 179.457 360.184C179.457 360.184 187.882 380.241 190.242 383.09C192.603 385.939 198.844 382.429 198.062 380.114C197.279 377.799 179.082 340.367 172.4 322.423C165.718 304.478 163.428 279.723 163.428 279.723C163.428 279.723 154.68 281.449 153.479 281.503C152.278 281.558 145.233 305.389 146.358 312.934C147.479 320.478 148.061 373.389 148.061 373.389Z" fill="#6E2F9B"/>
<path d="M151.514 275.403C151.514 275.403 140.618 326.632 136.144 376.648L140.012 379.814C140.012 379.814 142.91 375.096 153.633 373.755C153.633 373.755 145.35 304.894 156.525 277.344C156.525 277.344 169.288 343.662 182.435 383.97L186.402 385.299L192.038 382.792C192.038 382.792 164.672 313.999 159.327 274.474L151.514 275.403Z" fill="#98193B"/>
<path opacity="0.47" d="M148.21 368.188C148.21 368.188 139.016 371.264 136.144 376.647L140.011 379.813C140.011 379.813 142.91 375.095 153.633 373.754C153.633 373.754 146.007 310.33 155.273 280.868L154.312 275.069L151.513 275.402C151.513 275.402 150.46 280.357 148.874 288.682L151.352 287.829C151.352 287.829 143.089 335.807 148.21 368.188Z" fill="#9E2E46"/>
<path opacity="0.47" d="M156.527 277.344C156.527 277.344 157.061 280.115 158.019 284.865L159.72 284.109C163.224 313.084 188.546 381.252 188.546 381.252L182.435 383.97L186.402 385.299L192.038 382.792C192.038 382.792 164.672 313.999 159.327 274.474L154.312 275.07L155.272 280.869C155.662 279.634 156.076 278.452 156.527 277.344Z" fill="#9E2E46"/>
<path opacity="0.79" d="M137.471 363.382C137.471 363.382 144.51 359.632 148.173 360.515C151.836 361.396 152.672 364.323 152.672 364.323L152.308 361.266L152.381 354.385C152.381 354.385 145.857 349.682 144.188 351.324C142.519 352.967 136.755 360.078 136.755 360.078L137.471 363.382Z" fill="#9E2E46"/>
<path opacity="0.79" d="M181.004 379.185C181.004 379.185 184.442 380.64 186.776 379.601C189.111 378.563 189.822 376.754 189.822 376.754L188.509 373.804L181.004 379.185Z" fill="#9E2E46"/>
<path d="M140.477 270.353L143.37 273.527C143.37 273.527 152.438 270.447 161.035 264.4C169.631 258.352 173.608 251.269 173.608 251.269L171.998 247.83C171.998 247.83 175.516 245.5 176.682 245.747C177.847 245.994 178.562 249.737 181.253 250.571C183.945 251.405 185.406 250.658 187.049 250.797C188.693 250.937 188.904 262.736 172.438 274.122C155.971 285.508 146.102 286.435 144.935 286.18C143.767 285.926 143.751 281.272 141.962 278.201C140.174 275.129 138.035 273.663 137.752 273.015C137.47 272.367 140.477 270.353 140.477 270.353Z" fill="url(#paint23_linear_1_74)"/>
<path d="M171.997 247.83C171.997 247.83 174.732 245.397 176.681 245.747C178.63 246.097 172.637 264.557 159.027 272.061C145.417 279.565 137.761 274.075 137.752 273.015C137.743 271.956 140.476 270.353 140.476 270.353L143.733 273.259C143.733 273.259 163.373 266.695 173.311 251.487L171.997 247.83Z" fill="#A9244C"/>
<path d="M208.048 436.228L202.565 432.532C202.565 432.532 203.019 419.5 232.057 388.972C261.093 358.442 270.089 357.384 270.089 357.384L270.877 363.682C270.877 363.682 273.941 360.284 275.502 357.849C277.063 355.413 275.27 323.879 271.649 321.787C267.865 319.602 232.222 344.547 210.793 373.418C189.364 402.29 184.629 423.413 186.444 428.214C188.259 433.015 198.715 437.066 201.569 437.537C204.422 438.008 208.048 436.228 208.048 436.228Z" fill="url(#paint24_linear_1_74)"/>
<path d="M208.517 436.532L212.158 438.837C212.158 438.837 254.081 416.659 271.902 386.38L271.847 381.279C271.847 381.279 277.198 382.094 278.002 383.813C278.961 385.867 273.634 414.146 272.282 418.698C270.932 423.25 246.322 438.903 234.398 443.24C222.474 447.578 220.303 447.285 219.252 446.979C218.201 446.673 210.049 442.177 209.371 441.125C208.691 440.073 208.517 436.532 208.517 436.532Z" fill="url(#paint25_linear_1_74)"/>
<path d="M145.156 357.072C148.579 356.506 151.718 360.474 152.308 361.264C161.487 352.31 156.614 329.488 144.076 329.347C129.737 329.185 124.786 357.637 137.504 363.692L137.47 363.381C137.47 363.381 141.357 357.701 145.156 357.072Z" fill="url(#paint26_linear_1_74)"/>
<path d="M181.321 353.958C179.288 359.796 174.3 355.485 174.289 355.477C168.421 362.18 173.099 382.216 184.992 378.965C193.134 376.737 189.055 357.56 181.321 353.958Z" fill="url(#paint27_linear_1_74)"/>
<path opacity="0.5" d="M153.73 125.374C155.323 127.442 159.792 138.723 160.604 140.789C157.34 132.347 150.403 103.258 149.409 100.257C148.181 96.5487 144.343 88.3922 144.343 88.3922C144.343 88.3922 142.962 93.957 141.267 101.942C142.071 98.3373 144.898 104.383 148.171 114.132C148.625 115.466 151.974 123.096 153.73 125.374Z" fill="url(#paint28_linear_1_74)"/>
<path opacity="0.53" d="M151.684 73.8898C154.788 59.8238 164.599 28.9381 167.155 37.0576C169.711 45.177 181.384 88.3337 179.116 93.9835C176.848 99.6343 149.408 84.2025 151.684 73.8898Z" fill="url(#paint29_linear_1_74)"/>
<path opacity="0.53" d="M138.059 128.629C139.157 113.773 141.592 101.972 143.989 108.062C146.386 114.151 155.119 138.526 154.308 144.29C153.497 150.054 137.665 133.955 138.059 128.629Z" fill="url(#paint30_linear_1_74)"/>
<path opacity="0.53" d="M172.982 162.949C176.484 153.796 193.898 120.26 193.439 126.183C192.979 132.105 192.135 146.334 189.08 152.272C186.026 158.211 170.592 169.197 172.982 162.949Z" fill="url(#paint31_linear_1_74)"/>
<path opacity="0.53" d="M188.536 193.258C190.593 186.058 200.575 168.464 201.312 174.471C202.049 180.479 204.543 191.305 201.07 193.457C197.599 195.609 186.738 199.557 188.536 193.258Z" fill="url(#paint32_linear_1_74)"/>
<g opacity="0.5">
<path d="M183.666 83.4156C179.46 66.651 171.355 43.5011 169.09 37.0861C166.826 30.6706 174.04 68.82 177.107 73.8177C180.174 78.8155 186.281 93.844 183.666 83.4156Z" fill="#C41A67"/>
</g>
<g opacity="0.5">
<path d="M145.349 106.423C143.56 102.449 146.78 119.778 149.261 125.829C151.743 131.881 158.506 150.192 155.179 138.087C151.852 125.982 146.699 109.421 145.349 106.423Z" fill="#C41A67"/>
</g>
<g opacity="0.5">
<path d="M193.931 146.208C194.344 143.362 194.806 134.542 194.827 129.919C194.849 125.296 192.456 143.264 190.857 149.39C189.257 155.516 186.617 164.328 188.479 160.207C190.341 156.086 193.583 148.609 193.931 146.208Z" fill="#C41A67"/>
</g>
<path d="M137.183 192.462C132.786 199.298 119.183 208.508 105.988 206.851C105.988 206.851 115.808 210.017 124.449 206.186C133.091 202.353 137.183 192.462 137.183 192.462Z" fill="#E28959"/>
<path d="M105.785 222.824C105.785 222.824 130.603 217.524 145.426 204.818C145.426 204.818 130.803 230.817 105.785 222.824Z" fill="#E28959"/>
<path opacity="0.47" d="M138.587 213.549C133.298 219.798 132.525 232 123.692 229.644C114.859 227.288 107.241 224.997 107.241 224.997C107.241 224.997 114.836 233.673 116.83 234.58C118.823 235.485 126.692 234.247 137.744 228.006C148.794 221.766 154.514 217.586 156.255 213.182C157.996 208.778 156.358 194.441 156.358 194.441C156.358 194.441 147.322 201.974 145.429 204.817C143.191 208.172 141.227 210.429 138.587 213.549Z" fill="#9E2E46"/>
<path opacity="0.47" d="M221.66 388.159C199.541 415.32 193.513 434.402 199.63 437.028C200.426 437.282 201.104 437.461 201.568 437.538C204.422 438.009 208.047 436.229 208.047 436.229L202.564 432.533C202.564 432.533 203.019 419.501 232.056 388.973C261.093 358.444 270.089 357.386 270.089 357.386L270.876 363.683C270.876 363.683 273.941 360.286 275.502 357.85C279.143 333.247 243.8 360.972 221.66 388.159Z" fill="#6E2F9B"/>
<path opacity="0.57" d="M271.847 381.279L271.902 386.38C254.081 416.659 212.158 438.837 212.158 438.837L208.517 436.532C208.517 436.532 208.691 440.073 209.371 441.125C212.022 442.125 212.497 443.346 238.133 427.953C263.768 412.559 277.243 392.774 278.002 383.813C277.198 382.094 271.847 381.279 271.847 381.279Z" fill="#5F316E"/>
<path opacity="0.57" d="M186.105 425.018C186.105 425.018 200.972 370.646 268.93 322.156C268.93 322.156 200.362 359.461 186.105 425.018Z" fill="#5F316E"/>
<path d="M194.726 399.647C190.89 408.797 206.856 383.757 212.245 376.831C217.633 369.905 235.255 348.343 248.106 338.53C260.956 328.717 230.42 347.391 214.912 367.989C199.404 388.586 194.726 399.647 194.726 399.647Z" fill="#5F316E"/>
<path opacity="0.67" d="M201.568 437.536C204.422 438.008 208.048 436.228 208.048 436.228L202.565 432.532C202.565 432.532 204.576 421.399 233.613 390.869C262.649 360.34 270.09 357.384 270.09 357.384L270.877 363.682C270.877 363.682 273.941 360.284 275.502 357.849C277.063 355.413 275.271 323.879 271.649 321.787C271.47 321.683 271.195 321.659 270.877 321.676C262.947 326.114 252.448 333.632 239.446 346.381C228.998 356.625 229.065 376.639 226.004 381.622C222.943 386.605 204.669 408.489 202.308 410.212C199.948 411.937 192.956 409.514 189.831 414.965C186.707 420.416 189.876 428.502 192.287 433.761C195.844 435.834 199.942 437.268 201.568 437.536Z" fill="#6E2F9B"/>
<path d="M137.235 361.16L141.53 332.091C141.53 332.091 148.783 328.926 150.385 333.476L151.412 356.654C151.412 356.654 145.651 350.298 137.235 361.16Z" fill="#AD15AA"/>
<path d="M180.662 378.065C180.662 378.065 187.507 376.857 187.973 372.686L181.868 356.353C181.868 356.353 177.159 361.355 174.997 358.542L180.662 378.065Z" fill="#AD15AA"/>
<path d="M133.771 336.479C128.741 345.538 129.406 360.88 139.02 354.803C148.634 348.726 154.402 334.953 149.442 331.325C144.482 327.695 137.264 330.187 133.771 336.479Z" fill="url(#paint33_linear_1_74)"/>
<path d="M172.158 364.756C172.14 371.082 177.428 379.182 181.054 373.164C184.681 367.145 183.619 358.062 179.587 357.512C175.556 356.963 172.171 360.363 172.158 364.756Z" fill="url(#paint34_linear_1_74)"/>
<path opacity="0.44" d="M137.47 363.382C137.47 363.382 141.357 357.701 145.156 357.074C148.579 356.508 151.718 360.475 152.307 361.266C159.589 354.162 158.021 338.339 150.802 332.029C154.558 335.697 156.554 343.085 150.135 346.519C144.101 349.747 135.478 362.329 132.772 359.354C133.931 361.224 135.496 362.739 137.502 363.694L137.47 363.382Z" fill="#8700CA"/>
<path opacity="0.44" d="M184.991 378.964C193.133 376.738 189.053 357.561 181.321 353.957C179.287 359.795 174.299 355.484 174.288 355.476C170.926 359.927 175.913 357.552 177.582 357.391C179.252 357.232 183.418 356.758 184.532 363.484C185.646 370.209 179.7 378.819 174.786 374.655C177.039 378.097 180.501 380.192 184.991 378.964Z" fill="#8700CA"/>
<path d="M133.818 349.588C136.691 339.962 147.46 336.38 151.236 336.336C155.012 336.292 149.408 327.962 141.355 330.961C133.302 333.96 131.875 342.136 132.058 345.632C132.242 349.128 132.42 354.271 133.818 349.588Z" fill="url(#paint35_linear_1_74)"/>
<path d="M173.426 369.391C171.636 364.447 173.755 359.866 176.924 358.842C180.093 357.819 182.181 359.667 182.142 361.003C182.103 362.34 179.238 360.625 176.598 364.067C173.961 367.509 174.624 372.696 173.426 369.391Z" fill="url(#paint36_linear_1_74)"/>
<path d="M132.755 340.383C134.225 335.548 137.227 332.943 140.702 332.459C144.179 331.974 136.901 340.868 134.774 342.491C132.648 344.113 131.823 343.447 132.755 340.383Z" fill="#DBDDFF"/>
<path d="M173.625 364.935C172.27 365.372 173.213 361.076 175.069 359.959C176.925 358.841 177.437 363.706 173.625 364.935Z" fill="#DBDDFF"/>
<path opacity="0.7" d="M145.624 353.317C146.591 349.1 153.442 345.2 154.866 345.977C157.442 347.381 155.727 357.343 153.366 358.201C151.005 359.058 145.1 355.603 145.624 353.317Z" fill="#AD00CA"/>
<path opacity="0.7" d="M183.42 377.709C187.275 370.43 185.725 363.129 187.517 365.733C189.308 368.337 189.213 373.163 187.766 375.776C186.317 378.39 182.763 378.949 183.42 377.709Z" fill="#AD00CA"/>
<g opacity="0.5">
<path d="M142.893 275.679C142.893 275.679 162.787 280.194 174.412 254.784C174.412 254.784 162.523 270.079 142.893 275.679Z" fill="#A9244C"/>
</g>
<path opacity="0.47" d="M169.443 263.352C165.425 268.688 165.539 278.361 160.338 281.031C155.136 283.699 150.184 280.777 146.487 279.263C142.789 277.749 140.361 275.536 142.094 278.442C143.828 281.348 143.315 285.199 144.935 286.181C146.555 287.163 166.251 281.801 173.711 275.493C181.173 269.185 190.263 256.99 187.381 250.938C187.381 250.938 187.382 250.447 184.77 250.925C182.16 251.405 178.244 247.655 177.654 244.91C177.065 242.165 171.737 246.488 171.737 246.488C171.737 246.488 171.7 249.027 173.311 251.487C173.311 251.487 176.384 244.323 177.04 246.681C177.696 249.039 173.051 258.561 169.443 263.352Z" fill="#9E2E46"/>
<path opacity="0.47" d="M148.875 288.682C148.875 288.682 150.978 286.354 151.965 286.044C152.952 285.734 153.722 286.776 153.722 286.776L154.482 283.756L149.541 285.219L148.875 288.682Z" fill="#9E2E46"/>
<path opacity="0.47" d="M157.931 284.429C157.931 284.429 159.249 283.529 159.953 283.53C160.657 283.532 160.838 283.598 160.838 283.598L160.399 281.293L157.576 282.67L157.931 284.429Z" fill="#9E2E46"/>
<path d="M215.968 436.693C215.968 436.693 225.742 437.858 245.705 423.044C265.666 408.231 268.075 392.462 268.075 392.462C268.075 392.462 254.238 414.476 215.968 436.693Z" fill="#5F316E"/>
<path opacity="0.67" d="M256.281 414.769C251.441 418.621 243.763 430.764 237.99 434.383C232.216 438.003 224.141 436.441 217.749 439.539C217.632 439.597 217.513 439.623 217.396 439.673C211.745 442.379 210.934 441.716 209.371 441.126C210.051 442.178 218.203 446.673 219.253 446.98C220.304 447.286 222.472 447.579 234.398 443.241C246.323 438.905 270.933 423.252 272.283 418.699C273.633 414.147 278.961 385.868 278.002 383.813C277.448 390.345 270.131 402.627 256.281 414.769Z" fill="#6E2F9B"/>
<path opacity="0.47" d="M195.663 100.374C195.663 100.374 177.629 92.0663 187.797 64.3364C187.797 64.3364 196.511 90.2834 195.663 100.374Z" fill="#6E2F9B"/>
<path opacity="0.47" d="M201.159 147.825C201.159 147.825 187.69 142.802 201.895 125.896C201.895 125.896 202.686 144.007 201.159 147.825Z" fill="#6E2F9B"/>
<path opacity="0.47" d="M212.961 207.135C212.961 207.135 195.074 197.556 211.632 178.564C211.632 178.564 216.022 200.632 212.961 207.135Z" fill="#6E2F9B"/>
<path opacity="0.47" d="M148.209 368.188L153.633 373.755C153.633 373.755 145.185 374.233 140.011 379.814L136.144 376.647C136.144 376.647 137.657 372.131 148.209 368.188Z" fill="#9E2E46"/>
<path opacity="0.47" d="M182.436 383.969L188.547 381.251L192.039 382.792L186.403 385.299L182.436 383.969Z" fill="#9E2E46"/>
</g>
<defs>
<filter id="filter0_bd_1_74" x="29.0489" y="0.969074" width="332.174" height="539.136" filterUnits="userSpaceOnUse" color-interpolation-filters="sRGB">
<feFlood flood-opacity="0" result="BackgroundImageFix"/>
<feGaussianBlur in="BackgroundImageFix" stdDeviation="2"/>
<feComposite in2="SourceAlpha" operator="in" result="effect1_backgroundBlur_1_74"/>
<feColorMatrix in="SourceAlpha" type="matrix" values="0 0 0 0 0 0 0 0 0 0 0 0 0 0 0 0 0 0 127 0" result="hardAlpha"/>
<feOffset dy="4"/>
<feGaussianBlur stdDeviation="8.1"/>
<feComposite in2="hardAlpha" operator="out"/>
<feColorMatrix type="matrix" values="0 0 0 0 0.0156863 0 0 0 0 0.0784314 0 0 0 0 0.203922 0 0 0 1 0"/>
<feBlend mode="normal" in2="effect1_backgroundBlur_1_74" result="effect2_dropShadow_1_74"/>
<feBlend mode="normal" in="SourceGraphic" in2="effect2_dropShadow_1_74" result="shape"/>
</filter>
<radialGradient id="paint0_radial_1_74" cx="0" cy="0" r="1" gradientUnits="userSpaceOnUse" gradientTransform="translate(212.653 356.244) rotate(68.5593) scale(168.283 126.35)">
<stop offset="0.2504"/>
<stop offset="0.5322" stop-color="#FF0986"/>
<stop offset="0.5784" stop-color="#DA0872"/>
<stop offset="0.6668" stop-color="#990550"/>
<stop offset="0.7512" stop-color="#620334"/>
<stop offset="0.8289" stop-color="#38021D"/>
<stop offset="0.8987" stop-color="#19010D"/>
<stop offset="0.9581" stop-color="#070003"/>
<stop offset="1"/>
</radialGradient>
<linearGradient id="paint1_linear_1_74" x1="204.77" y1="213.769" x2="131.36" y2="48.7337" gradientUnits="userSpaceOnUse">
<stop stop-color="#DD2A84"/>
<stop offset="1" stop-color="#6C0DBF"/>
</linearGradient>
<linearGradient id="paint2_linear_1_74" x1="216.643" y1="240.462" x2="124.389" y2="33.0621" gradientUnits="userSpaceOnUse">
<stop stop-color="#814283"/>
<stop offset="1" stop-color="#D50055"/>
</linearGradient>
<linearGradient id="paint3_linear_1_74" x1="216.643" y1="240.462" x2="124.389" y2="33.062" gradientUnits="userSpaceOnUse">
<stop stop-color="#814283"/>
<stop offset="1" stop-color="#D50055"/>
</linearGradient>
<linearGradient id="paint4_linear_1_74" x1="248.732" y1="449.02" x2="168.857" y2="269.45" gradientUnits="userSpaceOnUse">
<stop stop-color="#EFABC4"/>
<stop offset="1" stop-color="#8E8096"/>
</linearGradient>
<linearGradient id="paint5_linear_1_74" x1="242.617" y1="431.893" x2="170.434" y2="269.617" gradientUnits="userSpaceOnUse">
<stop stop-color="#D3CFD8"/>
<stop offset="1" stop-color="#9C8CA3"/>
</linearGradient>
<linearGradient id="paint6_linear_1_74" x1="151.97" y1="252.832" x2="161.656" y2="272.681" gradientUnits="userSpaceOnUse">
<stop stop-color="#9C8CA3"/>
<stop offset="1" stop-color="#D3CFD8"/>
</linearGradient>
<linearGradient id="paint7_linear_1_74" x1="150.344" y1="260.694" x2="128.925" y2="212.541" gradientUnits="userSpaceOnUse">
<stop stop-color="#EFABC4"/>
<stop offset="1" stop-color="#8E8096"/>
</linearGradient>
<linearGradient id="paint8_linear_1_74" x1="241.655" y1="429.73" x2="198.313" y2="332.292" gradientUnits="userSpaceOnUse">
<stop stop-color="#D50055"/>
<stop offset="1" stop-color="#812C68"/>
</linearGradient>
<linearGradient id="paint9_linear_1_74" x1="241.655" y1="429.73" x2="170.785" y2="270.404" gradientUnits="userSpaceOnUse">
<stop stop-color="#D50055"/>
<stop offset="1" stop-color="#814283"/>
</linearGradient>
<linearGradient id="paint10_linear_1_74" x1="137.511" y1="227.327" x2="119.651" y2="187.175" gradientUnits="userSpaceOnUse">
<stop stop-color="#9E2E46"/>
<stop offset="0.6606" stop-color="#C65838"/>
<stop offset="1" stop-color="#D56833"/>
</linearGradient>
<linearGradient id="paint11_linear_1_74" x1="211.617" y1="437.619" x2="273.71" y2="409.999" gradientUnits="userSpaceOnUse">
<stop stop-color="#D50055"/>
<stop offset="1" stop-color="#814283"/>
</linearGradient>
<linearGradient id="paint12_linear_1_74" x1="254.784" y1="446.328" x2="162.105" y2="237.975" gradientUnits="userSpaceOnUse">
<stop stop-color="#EFABC4"/>
<stop offset="1" stop-color="#9C8CA3"/>
</linearGradient>
<linearGradient id="paint13_linear_1_74" x1="247.707" y1="449.476" x2="155.029" y2="241.123" gradientUnits="userSpaceOnUse">
<stop stop-color="#EFABC4"/>
<stop offset="1" stop-color="#9C8CA3"/>
</linearGradient>
<radialGradient id="paint14_radial_1_74" cx="0" cy="0" r="1" gradientUnits="userSpaceOnUse" gradientTransform="translate(111.671 173.752) rotate(-23.9803) scale(67.3395 61.4656)">
<stop offset="0.2463" stop-color="#C409C1"/>
<stop offset="0.3639" stop-color="#980795"/>
<stop offset="0.5233" stop-color="#620460"/>
<stop offset="0.6722" stop-color="#380337"/>
<stop offset="0.8059" stop-color="#190119"/>
<stop offset="0.9197" stop-color="#070007"/>
<stop offset="1"/>
</radialGradient>
<linearGradient id="paint15_linear_1_74" x1="86.1474" y1="154.123" x2="131.302" y2="194.691" gradientUnits="userSpaceOnUse">
<stop offset="0.0301" stop-color="#450085"/>
<stop offset="0.4787" stop-color="#8800A9"/>
<stop offset="0.6011" stop-color="#8E08B8"/>
<stop offset="0.8344" stop-color="#9F1CDE"/>
<stop offset="1" stop-color="#AD2DFD"/>
</linearGradient>
<linearGradient id="paint16_linear_1_74" x1="82.0528" y1="158.274" x2="125.404" y2="177.13" gradientUnits="userSpaceOnUse">
<stop stop-color="#AD7AE2"/>
<stop offset="1"/>
</linearGradient>
<linearGradient id="paint17_linear_1_74" x1="82.5701" y1="161.506" x2="104.528" y2="171.057" gradientUnits="userSpaceOnUse">
<stop stop-color="#B54DFF"/>
<stop offset="0.0966" stop-color="#9B42DB"/>
<stop offset="0.2864" stop-color="#6D2E99"/>
<stop offset="0.4673" stop-color="#461E63"/>
<stop offset="0.634" stop-color="#281138"/>
<stop offset="0.7835" stop-color="#120819"/>
<stop offset="0.9105" stop-color="#050207"/>
<stop offset="1"/>
</linearGradient>
<linearGradient id="paint18_linear_1_74" x1="150.924" y1="254.635" x2="141.725" y2="233.955" gradientUnits="userSpaceOnUse">
<stop stop-color="#D56833"/>
<stop offset="0.3394" stop-color="#C65838"/>
<stop offset="1" stop-color="#9E2E46"/>
</linearGradient>
<linearGradient id="paint19_linear_1_74" x1="254.513" y1="454.534" x2="182.63" y2="292.931" gradientUnits="userSpaceOnUse">
<stop stop-color="white"/>
<stop offset="0.0984" stop-color="#E8EAF4"/>
<stop offset="0.2731" stop-color="#C5CAE4"/>
<stop offset="0.4506" stop-color="#AAB2D7"/>
<stop offset="0.6297" stop-color="#96A0CD"/>
<stop offset="0.8115" stop-color="#8B95C8"/>
<stop offset="1" stop-color="#8792C6"/>
</linearGradient>
<linearGradient id="paint20_linear_1_74" x1="196.463" y1="326.696" x2="185.781" y2="302.682" gradientUnits="userSpaceOnUse">
<stop stop-color="#D50055"/>
<stop offset="1" stop-color="#814283"/>
</linearGradient>
<linearGradient id="paint21_linear_1_74" x1="207.86" y1="337.34" x2="151.309" y2="341.81" gradientUnits="userSpaceOnUse">
<stop offset="0.1591"/>
<stop offset="0.1819" stop-color="#080408"/>
<stop offset="0.49" stop-color="#703D70"/>
<stop offset="0.7377" stop-color="#BD66BD"/>
<stop offset="0.913" stop-color="#ED80ED"/>
<stop offset="1" stop-color="#FF8AFF"/>
</linearGradient>
<linearGradient id="paint22_linear_1_74" x1="256.823" y1="391.197" x2="232.453" y2="402.038" gradientUnits="userSpaceOnUse">
<stop stop-color="#FF8AFF"/>
<stop offset="0.1035" stop-color="#ED80ED"/>
<stop offset="0.3119" stop-color="#BD66BD"/>
<stop offset="0.6065" stop-color="#703D70"/>
<stop offset="0.9729" stop-color="#080408"/>
<stop offset="1"/>
</linearGradient>
<linearGradient id="paint23_linear_1_74" x1="139.271" y1="276.43" x2="188.9" y2="254.354" gradientUnits="userSpaceOnUse">
<stop stop-color="#82223B"/>
<stop offset="1" stop-color="#98193B"/>
</linearGradient>
<linearGradient id="paint24_linear_1_74" x1="217.228" y1="366.947" x2="245.203" y2="390.944" gradientUnits="userSpaceOnUse">
<stop offset="0.1028" stop-color="#5F316E"/>
<stop offset="1" stop-color="#361C3E"/>
</linearGradient>
<linearGradient id="paint25_linear_1_74" x1="237.025" y1="405.133" x2="258.501" y2="431.086" gradientUnits="userSpaceOnUse">
<stop stop-color="#5F316E"/>
<stop offset="1" stop-color="#361C3E"/>
</linearGradient>
<linearGradient id="paint26_linear_1_74" x1="130.487" y1="342.812" x2="156.51" y2="354.131" gradientUnits="userSpaceOnUse">
<stop offset="0.0301" stop-color="#450085"/>
<stop offset="0.4787" stop-color="#8800A9"/>
<stop offset="0.6011" stop-color="#8E08B8"/>
<stop offset="0.8344" stop-color="#9F1CDE"/>
<stop offset="1" stop-color="#AD2DFD"/>
</linearGradient>
<linearGradient id="paint27_linear_1_74" x1="170.572" y1="363.065" x2="190.31" y2="371.651" gradientUnits="userSpaceOnUse">
<stop offset="0.0301" stop-color="#450085"/>
<stop offset="0.4787" stop-color="#8800A9"/>
<stop offset="0.6011" stop-color="#8E08B8"/>
<stop offset="0.8344" stop-color="#9F1CDE"/>
<stop offset="1" stop-color="#AD2DFD"/>
</linearGradient>
<linearGradient id="paint28_linear_1_74" x1="162.708" y1="139.852" x2="140.565" y2="90.0728" gradientUnits="userSpaceOnUse">
<stop stop-color="#814283"/>
<stop offset="1" stop-color="#D50055"/>
</linearGradient>
<linearGradient id="paint29_linear_1_74" x1="153.927" y1="59.8733" x2="187.586" y2="74.5142" gradientUnits="userSpaceOnUse">
<stop stop-color="#B54DFF"/>
<stop offset="0.0966" stop-color="#9B42DB"/>
<stop offset="0.2864" stop-color="#6D2E99"/>
<stop offset="0.4673" stop-color="#461E63"/>
<stop offset="0.634" stop-color="#281138"/>
<stop offset="0.7835" stop-color="#120819"/>
<stop offset="0.9105" stop-color="#050207"/>
<stop offset="1"/>
</linearGradient>
<linearGradient id="paint30_linear_1_74" x1="135.327" y1="121.821" x2="159.582" y2="132.372" gradientUnits="userSpaceOnUse">
<stop stop-color="#B54DFF"/>
<stop offset="0.0966" stop-color="#9B42DB"/>
<stop offset="0.2864" stop-color="#6D2E99"/>
<stop offset="0.4673" stop-color="#461E63"/>
<stop offset="0.634" stop-color="#281138"/>
<stop offset="0.7835" stop-color="#120819"/>
<stop offset="0.9105" stop-color="#050207"/>
<stop offset="1"/>
</linearGradient>
<linearGradient id="paint31_linear_1_74" x1="181.329" y1="143.944" x2="189.667" y2="150.125" gradientUnits="userSpaceOnUse">
<stop stop-color="#E74DFF"/>
<stop offset="0.0966" stop-color="#C642DB"/>
<stop offset="0.2864" stop-color="#8B2E99"/>
<stop offset="0.4673" stop-color="#591E63"/>
<stop offset="0.634" stop-color="#331138"/>
<stop offset="0.7835" stop-color="#170819"/>
<stop offset="0.9105" stop-color="#060207"/>
<stop offset="1"/>
</linearGradient>
<linearGradient id="paint32_linear_1_74" x1="192.927" y1="183.226" x2="202.015" y2="191.069" gradientUnits="userSpaceOnUse">
<stop stop-color="#E74DFF"/>
<stop offset="0.0966" stop-color="#C642DB"/>
<stop offset="0.2864" stop-color="#8B2E99"/>
<stop offset="0.4673" stop-color="#591E63"/>
<stop offset="0.634" stop-color="#331138"/>
<stop offset="0.7835" stop-color="#170819"/>
<stop offset="0.9105" stop-color="#060207"/>
<stop offset="1"/>
</linearGradient>
<linearGradient id="paint33_linear_1_74" x1="132.04" y1="340.209" x2="147.595" y2="346.975" gradientUnits="userSpaceOnUse">
<stop stop-color="#AD7AE2"/>
<stop offset="1"/>
</linearGradient>
<linearGradient id="paint34_linear_1_74" x1="172.348" y1="367.264" x2="183.483" y2="366.13" gradientUnits="userSpaceOnUse">
<stop stop-color="#AD7AE2"/>
<stop offset="1"/>
</linearGradient>
<linearGradient id="paint35_linear_1_74" x1="133.318" y1="338.784" x2="148.221" y2="345.266" gradientUnits="userSpaceOnUse">
<stop stop-color="#B54DFF"/>
<stop offset="0.0966" stop-color="#9B42DB"/>
<stop offset="0.2864" stop-color="#6D2E99"/>
<stop offset="0.4673" stop-color="#461E63"/>
<stop offset="0.634" stop-color="#281138"/>
<stop offset="0.7835" stop-color="#120819"/>
<stop offset="0.9105" stop-color="#050207"/>
<stop offset="1"/>
</linearGradient>
<linearGradient id="paint36_linear_1_74" x1="173.036" y1="363.26" x2="179.915" y2="366.253" gradientUnits="userSpaceOnUse">
<stop stop-color="#B54DFF"/>
<stop offset="0.0966" stop-color="#9B42DB"/>
<stop offset="0.2864" stop-color="#6D2E99"/>
<stop offset="0.4673" stop-color="#461E63"/>
<stop offset="0.634" stop-color="#281138"/>
<stop offset="0.7835" stop-color="#120819"/>
<stop offset="0.9105" stop-color="#050207"/>
<stop offset="1"/>
</linearGradient>
</defs>
</svg>
