<svg width="481" height="907" viewBox="0 0 481 907" fill="none" xmlns="http://www.w3.org/2000/svg">
<g style="mix-blend-mode:color-dodge">
<path d="M-202.1 354.524C-100.017 147.897 45.7869 22.9609 123.561 75.4759C201.336 127.991 181.63 338.063 79.5476 544.69C-22.5361 751.317 -168.339 876.254 -246.113 823.739C-323.887 771.224 -304.182 561.152 -202.1 354.524Z" fill="url(#paint0_radial_1_207)"/>
</g>
<g style="mix-blend-mode:luminosity">
<path d="M143.737 346.893L111.308 451.512C111.308 451.512 156.086 737.299 145.831 734.915L167.91 752.078L142.185 458.637L143.799 346.855L143.737 346.893Z" fill="#03899E"/>
<path d="M204.841 752.311L227.054 722.856L211.051 418.595L143.737 346.893L176.344 474.669L204.841 752.311Z" fill="#0E3D5B"/>
<path d="M177.125 446.01L143.737 346.893L142.124 458.676L167.245 764.742L204.841 752.311L177.125 446.01Z" fill="#06768D"/>
<path d="M242.638 432.925L362.138 350.125L314.786 477.908L242.638 432.925Z" fill="#0CE4E7"/>
<path d="M194.253 705.091C199.079 707.579 239.23 750.481 239.23 750.481L314.85 471.251L242.638 432.924L194.253 705.091Z" fill="#08637D"/>
<path d="M210.837 687.093C210.837 687.093 254.602 478.101 267.433 483.08C280.264 488.059 237.082 710.951 237.082 710.951L210.848 687.044L210.837 687.093Z" fill="#06768D"/>
<path d="M271.354 757.949L368.776 490.459L314.851 471.251L239.231 750.482L271.354 757.949Z" fill="#102A4B"/>
<path d="M298.203 739.082L271.351 757.95L368.773 490.46L397.879 481.729L298.203 739.082Z" fill="#08637D"/>
<path d="M368.776 490.46L362.138 350.125L314.85 471.251L368.776 490.46Z" fill="#08637D"/>
<path d="M397.88 481.729L362.137 350.124L368.774 490.459L397.88 481.729Z" fill="#0E3D5B"/>
<path d="M347.348 614.078L430.012 595.367L369.077 654.169L347.348 614.078Z" fill="#08637D"/>
<path d="M371.086 650.539L251.496 785.011C251.496 785.011 244.721 753.072 243.112 750.649L347.409 614.04L371.148 650.501L371.086 650.539Z" fill="#0B506C"/>
<path d="M371.088 650.539L251.497 785.01C249.38 775.43 246.665 760.667 245.636 759.167L352.048 621.212L371.099 650.489L371.088 650.539Z" fill="#102A4B"/>
<path d="M264.815 796.093L391.581 672.693L371.086 650.54L251.434 785.049L264.815 796.093Z" fill="#0B506C"/>
<path d="M283.479 791.709L264.816 796.091L391.582 672.691L408.317 674.323L283.479 791.709Z" fill="#08637D"/>
<path d="M391.582 672.692L430.011 595.367L371.087 650.539L391.582 672.692Z" fill="#03899E"/>
<path d="M408.316 674.323L430.01 595.367L391.581 672.692L408.316 674.323Z" fill="#06768D"/>
<path d="M72.792 644.755L86.1384 567.062L117.175 636.634L72.792 644.755Z" fill="#0E3D5B"/>
<path d="M156.223 762.913C158.999 762.14 192.863 775.792 192.863 775.792L114.623 633.94L72.7809 644.805L156.223 762.913Z" fill="#03899E"/>
<path d="M207.828 767.031L142.254 621.977L114.622 633.94L192.862 775.792L207.828 767.031Z" fill="#0B506C"/>
<path d="M210.693 749.468L207.829 767.031L142.255 621.977L149.923 607.685L210.693 749.468Z" fill="#0E3D5B"/>
<path d="M142.254 621.977C108.927 590.747 121.721 603.177 86.1384 567.062L117.163 636.684L142.304 621.989L142.254 621.977Z" fill="#08637D"/>
<path d="M149.922 607.685L86.1384 567.062L142.254 621.977L149.922 607.685Z" fill="#03899E"/>
<path d="M203.106 614.586L173.86 709.385L208.094 717.344L240.997 694.104L250.475 653.336L228.294 632.734L203.106 614.586Z" fill="#03899E"/>
<path d="M168.083 658.346L203.107 614.586L173.862 709.386L168.083 658.346Z" fill="#0B506C"/>
<path d="M187.38 773.624L173.86 709.385L203.106 614.586L211.763 718.197L204.626 791.975L187.38 773.624Z" fill="#08637D"/>
<path d="M241.332 777.447L240.997 694.104L211.391 715.012L204.626 791.976L241.332 777.447Z" fill="#0B506C"/>
<path d="M250.715 756.461L241.332 777.447L240.997 694.105L250.475 653.336L250.715 756.461Z" fill="#102A4B"/>
<path d="M211.051 418.595L177.125 446.01L143.737 346.893L211.051 418.595Z" fill="#03899E"/>
<path d="M142.238 452.029L162.453 616.009L160.847 448.791L142.238 452.029Z" fill="#0CE4E7"/>
<path d="M300.866 674.979L377.534 487.873L368.773 490.459L300.866 674.979Z" fill="#0CE4E7"/>
<path d="M173.861 709.385L190.72 653.732L178.133 710.379L180.45 740.756L173.861 709.385Z" fill="#0CE4E7"/>
<path d="M72.793 644.757L180.145 770.787L156.224 762.915L72.793 644.757Z" fill="#0CE4E7"/>
<path d="M391.58 672.692L338.374 724.465L401.572 673.702L391.58 672.692Z" fill="#03899E"/>
<path d="M111.308 451.512L142.237 452.03L143.737 346.893L111.308 451.512Z" fill="#0B506C"/>
<path d="M327.015 474.079C316.033 472.314 315.291 472.772 312.046 483.312C313.783 472.421 313.319 471.683 302.685 468.423C313.666 470.188 314.409 469.73 317.654 459.19C315.917 470.081 316.381 470.819 327.015 474.079Z" fill="#B0E8EC"/>
<path d="M194.278 421.681C183.296 419.916 182.554 420.374 179.309 430.914C181.046 420.023 180.582 419.285 169.948 416.025C180.929 417.79 181.672 417.332 184.917 406.792C183.18 417.682 183.644 418.421 194.278 421.681Z" fill="#B0E8EC"/>
<path d="M223.175 720.852C211.842 719.005 211.088 719.513 207.773 730.352C209.592 719.112 209.077 718.362 198.141 715.032C209.475 716.879 210.229 716.371 213.544 705.532C211.725 716.771 212.24 717.521 223.175 720.852Z" fill="#B0E8EC"/>
<path d="M125.421 638.552C114.088 636.705 113.334 637.213 110.019 648.052C111.837 636.812 111.323 636.062 100.387 632.732C111.721 634.579 112.475 634.071 115.789 623.232C113.971 634.472 114.486 635.222 125.421 638.552Z" fill="#B0E8EC"/>
<path style="mix-blend-mode:color-dodge" d="M220.245 779.952C281.018 794.081 341.64 756.689 355.648 696.436C369.656 636.183 331.745 575.885 270.972 561.756C210.199 547.627 149.577 585.019 135.569 645.272C121.561 705.525 159.472 765.823 220.245 779.952Z" fill="url(#paint1_radial_1_207)"/>
<g style="mix-blend-mode:saturation">
<path d="M355.747 515.274C329.852 571.505 285.642 606.458 256.995 593.389C228.347 580.32 226.152 524.124 252.036 467.943C277.931 411.711 322.141 376.759 350.788 389.828C379.436 402.897 381.631 459.092 355.747 515.274Z" fill="url(#paint2_radial_1_207)" style="mix-blend-mode:color-dodge"/>
</g>
</g>
<g style="mix-blend-mode:saturation" opacity="0.2" filter="url(#filter0_f_1_207)">
<path d="M202.901 886.89C71.1384 882.374 -29.3643 739.969 -21.5763 568.82C-13.7882 397.672 99.3372 262.594 231.099 267.11C362.862 271.629 463.364 414.031 455.576 585.18C447.788 756.326 334.663 891.406 202.901 886.89Z" fill="url(#paint3_linear_1_207)"/>
<path d="M202.918 886.39C71.5495 881.887 -28.8582 739.845 -21.0768 568.843C-17.1873 483.369 13.0053 406.92 58.6546 352.412C104.304 297.904 165.388 265.358 231.082 267.61C362.451 272.115 462.858 414.155 455.077 585.157C451.187 670.629 420.995 747.079 375.345 801.587C329.696 856.095 268.613 888.642 202.918 886.39Z" stroke="black"/>
</g>
<defs>
<filter id="filter0_f_1_207" x="-42" y="247" width="518" height="660" filterUnits="userSpaceOnUse" color-interpolation-filters="sRGB">
<feFlood flood-opacity="0" result="BackgroundImageFix"/>
<feBlend mode="normal" in="SourceGraphic" in2="BackgroundImageFix" result="shape"/>
<feGaussianBlur stdDeviation="10" result="effect1_foregroundBlur_1_207"/>
</filter>
<radialGradient id="paint0_radial_1_207" cx="0" cy="0" r="1" gradientUnits="userSpaceOnUse" gradientTransform="translate(-61.2754 449.606) rotate(-145.98) scale(169.914 413.514)">
<stop offset="0.2504"/>
<stop offset="0.5322"/>
<stop offset="0.5784" stop-color="#210421"/>
<stop offset="0.6668" stop-color="#6D006F"/>
<stop offset="0.7512" stop-color="#62035E"/>
<stop offset="0.8289" stop-color="#38021D"/>
<stop offset="0.8987" stop-color="#19010D"/>
<stop offset="0.9581" stop-color="#070003"/>
<stop offset="1"/>
</radialGradient>
<radialGradient id="paint1_radial_1_207" cx="0" cy="0" r="1" gradientUnits="userSpaceOnUse" gradientTransform="translate(245.608 670.854) rotate(13.0878) scale(112.974 112.008)">
<stop stop-color="#025663"/>
<stop offset="1"/>
</radialGradient>
<radialGradient id="paint2_radial_1_207" cx="0" cy="0" r="1" gradientUnits="userSpaceOnUse" gradientTransform="translate(304.828 492.006) rotate(24.5515) scale(56.4677 112.046)">
<stop stop-color="#025663"/>
<stop offset="1"/>
</radialGradient>
<linearGradient id="paint3_linear_1_207" x1="231.087" y1="267.112" x2="209.804" y2="887.123" gradientUnits="userSpaceOnUse">
<stop offset="0.2504" stop-color="#FF0000"/>
<stop offset="0.5784" stop-color="#FF0000"/>
<stop offset="0.6668" stop-color="#051499"/>
<stop offset="0.7512" stop-color="#032962"/>
<stop offset="0.8289" stop-color="#38021D"/>
<stop offset="0.87" stop-color="#FF1809"/>
<stop offset="0.8987" stop-color="#19010D"/>
<stop offset="0.9581" stop-color="#070003"/>
<stop offset="1"/>
</linearGradient>
</defs>
</svg>
