<svg width="48" height="48" viewBox="0 0 48 48" fill="none" xmlns="http://www.w3.org/2000/svg">
<g style="mix-blend-mode:hard-light">
<path d="M31.0156 28.1237L31.0729 28.1374H31.1021C32.697 28.5488 33.8719 29.9905 33.8719 31.7194V35.1503C33.8719 35.5412 33.5558 35.8574 33.1648 35.8574H14.8987C14.5078 35.8574 14.1916 35.5412 14.1916 35.1503V31.7194C14.1916 29.9704 15.3941 28.5152 17.0174 28.1234C18.483 27.7696 19.8165 27.0447 20.8817 26.0303C21.7013 25.2534 21.6648 23.9619 20.8929 23.1878C20.1677 22.4471 19.5408 21.5627 19.1408 20.5998L19.0443 20.3675L18.8003 20.3065C18.5651 20.2477 18.2849 20.1027 18.0704 19.899C17.8567 19.6959 17.7495 19.477 17.7495 19.2668C17.7495 18.6144 18.0806 18.2282 18.3157 18.1569L18.6546 18.0542L18.6703 17.7004C18.7396 16.1286 19.0928 14.7536 19.8902 13.7777C20.6695 12.8238 21.9372 12.1744 24.0159 12.1744C26.0953 12.1744 27.3586 12.8202 28.1356 13.7717C28.931 14.7457 29.2844 16.1208 29.3616 17.7028L29.3788 18.0547L29.716 18.1569C29.8257 18.1902 29.9664 18.293 30.0865 18.4986C30.2043 18.7 30.2823 18.9696 30.2823 19.2668C30.2823 19.4661 30.178 19.6813 29.9614 19.8871C29.7452 20.0924 29.4613 20.2432 29.2202 20.3095L28.9847 20.3742L28.891 20.5998C28.4896 21.566 27.8615 22.4652 27.1408 23.1859C26.3675 23.9592 26.3299 25.2512 27.1485 26.0289C28.1998 27.0456 29.5348 27.7703 31.0156 28.1237Z" fill="white"/>
<path d="M31.0156 28.1237L31.0729 28.1374H31.1021C32.697 28.5488 33.8719 29.9905 33.8719 31.7194V35.1503C33.8719 35.5412 33.5558 35.8574 33.1648 35.8574H14.8987C14.5078 35.8574 14.1916 35.5412 14.1916 35.1503V31.7194C14.1916 29.9704 15.3941 28.5152 17.0174 28.1234C18.483 27.7696 19.8165 27.0447 20.8817 26.0303C21.7013 25.2534 21.6648 23.9619 20.8929 23.1878C20.1677 22.4471 19.5408 21.5627 19.1408 20.5998L19.0443 20.3675L18.8003 20.3065C18.5651 20.2477 18.2849 20.1027 18.0704 19.899C17.8567 19.6959 17.7495 19.477 17.7495 19.2668C17.7495 18.6144 18.0806 18.2282 18.3157 18.1569L18.6546 18.0542L18.6703 17.7004C18.7396 16.1286 19.0928 14.7536 19.8902 13.7777C20.6695 12.8238 21.9372 12.1744 24.0159 12.1744C26.0953 12.1744 27.3586 12.8202 28.1356 13.7717C28.931 14.7457 29.2844 16.1208 29.3616 17.7028L29.3788 18.0547L29.716 18.1569C29.8257 18.1902 29.9664 18.293 30.0865 18.4986C30.2043 18.7 30.2823 18.9696 30.2823 19.2668C30.2823 19.4661 30.178 19.6813 29.9614 19.8871C29.7452 20.0924 29.4613 20.2432 29.2202 20.3095L28.9847 20.3742L28.891 20.5998C28.4896 21.566 27.8615 22.4652 27.1408 23.1859C26.3675 23.9592 26.3299 25.2512 27.1485 26.0289C28.1998 27.0456 29.5348 27.7703 31.0156 28.1237Z" fill="black"/>
<path d="M31.0156 28.1237L31.0729 28.1374H31.1021C32.697 28.5488 33.8719 29.9905 33.8719 31.7194V35.1503C33.8719 35.5412 33.5558 35.8574 33.1648 35.8574H14.8987C14.5078 35.8574 14.1916 35.5412 14.1916 35.1503V31.7194C14.1916 29.9704 15.3941 28.5152 17.0174 28.1234C18.483 27.7696 19.8165 27.0447 20.8817 26.0303C21.7013 25.2534 21.6648 23.9619 20.8929 23.1878C20.1677 22.4471 19.5408 21.5627 19.1408 20.5998L19.0443 20.3675L18.8003 20.3065C18.5651 20.2477 18.2849 20.1027 18.0704 19.899C17.8567 19.6959 17.7495 19.477 17.7495 19.2668C17.7495 18.6144 18.0806 18.2282 18.3157 18.1569L18.6546 18.0542L18.6703 17.7004C18.7396 16.1286 19.0928 14.7536 19.8902 13.7777C20.6695 12.8238 21.9372 12.1744 24.0159 12.1744C26.0953 12.1744 27.3586 12.8202 28.1356 13.7717C28.931 14.7457 29.2844 16.1208 29.3616 17.7028L29.3788 18.0547L29.716 18.1569C29.8257 18.1902 29.9664 18.293 30.0865 18.4986C30.2043 18.7 30.2823 18.9696 30.2823 19.2668C30.2823 19.4661 30.178 19.6813 29.9614 19.8871C29.7452 20.0924 29.4613 20.2432 29.2202 20.3095L28.9847 20.3742L28.891 20.5998C28.4896 21.566 27.8615 22.4652 27.1408 23.1859C26.3675 23.9592 26.3299 25.2512 27.1485 26.0289C28.1998 27.0456 29.5348 27.7703 31.0156 28.1237Z" stroke="white"/>
<path d="M24 47.5C11.0452 47.5 0.5 36.9548 0.5 24C0.5 11.0452 11.0452 0.5 24 0.5C36.9548 0.5 47.5 11.0452 47.5 24C47.5 36.9548 36.9548 47.5 24 47.5ZM24 1.08835C11.3665 1.08835 1.08835 11.3665 1.08835 24C1.08835 36.6335 11.3665 46.9116 24 46.9116C36.6335 46.9116 46.9116 36.6335 46.9116 24C46.9116 11.3665 36.6335 1.08835 24 1.08835Z" fill="white"/>
<path d="M24 47.5C11.0452 47.5 0.5 36.9548 0.5 24C0.5 11.0452 11.0452 0.5 24 0.5C36.9548 0.5 47.5 11.0452 47.5 24C47.5 36.9548 36.9548 47.5 24 47.5ZM24 1.08835C11.3665 1.08835 1.08835 11.3665 1.08835 24C1.08835 36.6335 11.3665 46.9116 24 46.9116C36.6335 46.9116 46.9116 36.6335 46.9116 24C46.9116 11.3665 36.6335 1.08835 24 1.08835Z" fill="black"/>
<path d="M24 47.5C11.0452 47.5 0.5 36.9548 0.5 24C0.5 11.0452 11.0452 0.5 24 0.5C36.9548 0.5 47.5 11.0452 47.5 24C47.5 36.9548 36.9548 47.5 24 47.5ZM24 1.08835C11.3665 1.08835 1.08835 11.3665 1.08835 24C1.08835 36.6335 11.3665 46.9116 24 46.9116C36.6335 46.9116 46.9116 36.6335 46.9116 24C46.9116 11.3665 36.6335 1.08835 24 1.08835Z" stroke="white"/>
</g>
</svg>
